<svg width="88" height="25" viewBox="0 0 88 25" fill="none" xmlns="http://www.w3.org/2000/svg">
<path d="M15.4053 3.125H23.75V21.875L15.4053 3.125ZM9.59473 3.125H1.25V21.875L9.59473 3.125ZM12.5 10.0635L17.749 21.875H14.1846L12.6855 18.125H8.84277L12.5 10.0635Z" fill="#999999"/>
<path d="M43.3672 16.3633H38.7441L37.8652 19H35.0615L39.8252 6.20312H42.2686L47.0586 19H44.2549L43.3672 16.3633ZM39.4561 14.2275H42.6553L41.0469 9.4375L39.4561 14.2275ZM47.6914 14.1748C47.6914 12.6924 48.0225 11.5117 48.6846 10.6328C49.3525 9.75391 50.2637 9.31445 51.418 9.31445C52.3438 9.31445 53.1084 9.66016 53.7119 10.3516V5.5H56.2607V19H53.9668L53.8438 17.9893C53.2109 18.7803 52.3965 19.1758 51.4004 19.1758C50.2812 19.1758 49.3818 18.7363 48.7021 17.8574C48.0283 16.9727 47.6914 15.7451 47.6914 14.1748ZM50.2314 14.3594C50.2314 15.25 50.3867 15.9326 50.6973 16.4072C51.0078 16.8818 51.459 17.1191 52.0508 17.1191C52.8359 17.1191 53.3896 16.7881 53.7119 16.126V12.373C53.3955 11.7109 52.8477 11.3799 52.0684 11.3799C50.8438 11.3799 50.2314 12.373 50.2314 14.3594ZM57.834 14.1572C57.834 13.2139 58.0156 12.373 58.3789 11.6348C58.7422 10.8965 59.2637 10.3252 59.9434 9.9209C60.6289 9.5166 61.4229 9.31445 62.3252 9.31445C63.6084 9.31445 64.6543 9.70703 65.4629 10.4922C66.2773 11.2773 66.7314 12.3438 66.8252 13.6914L66.8428 14.3418C66.8428 15.8008 66.4355 16.9727 65.6211 17.8574C64.8066 18.7363 63.7139 19.1758 62.3428 19.1758C60.9717 19.1758 59.876 18.7363 59.0557 17.8574C58.2412 16.9785 57.834 15.7832 57.834 14.2715V14.1572ZM60.374 14.3418C60.374 15.2441 60.5439 15.9355 60.8838 16.416C61.2236 16.8906 61.71 17.1279 62.3428 17.1279C62.958 17.1279 63.4385 16.8936 63.7842 16.4248C64.1299 15.9502 64.3027 15.1943 64.3027 14.1572C64.3027 13.2725 64.1299 12.5869 63.7842 12.1006C63.4385 11.6143 62.9521 11.3711 62.3252 11.3711C61.7041 11.3711 61.2236 11.6143 60.8838 12.1006C60.5439 12.5811 60.374 13.3281 60.374 14.3418ZM76.9766 14.333C76.9766 15.8564 76.6514 17.0459 76.001 17.9014C75.3506 18.751 74.4424 19.1758 73.2764 19.1758C72.2451 19.1758 71.4219 18.7803 70.8066 17.9893L70.6924 19H68.4072V5.5H70.9473V10.3428C71.5332 9.65723 72.3037 9.31445 73.2588 9.31445C74.4189 9.31445 75.3271 9.74219 75.9834 10.5977C76.6455 11.4473 76.9766 12.6455 76.9766 14.1924V14.333ZM74.4365 14.1484C74.4365 13.1875 74.2842 12.4873 73.9795 12.0479C73.6748 11.6025 73.2207 11.3799 72.6172 11.3799C71.8086 11.3799 71.252 11.7109 70.9473 12.373V16.126C71.2578 16.7939 71.8203 17.1279 72.6348 17.1279C73.4551 17.1279 73.9941 16.7236 74.252 15.915C74.375 15.5283 74.4365 14.9395 74.4365 14.1484ZM82.9268 19.1758C81.5322 19.1758 80.3955 18.748 79.5166 17.8926C78.6436 17.0371 78.207 15.8975 78.207 14.4736V14.2275C78.207 13.2725 78.3916 12.4199 78.7607 11.6699C79.1299 10.9141 79.6514 10.334 80.3252 9.92969C81.0049 9.51953 81.7783 9.31445 82.6455 9.31445C83.9463 9.31445 84.9688 9.72461 85.7129 10.5449C86.4629 11.3652 86.8379 12.5283 86.8379 14.0342V15.0713H80.7822C80.8643 15.6924 81.1104 16.1904 81.5205 16.5654C81.9365 16.9404 82.4609 17.1279 83.0938 17.1279C84.0723 17.1279 84.8369 16.7734 85.3877 16.0645L86.6357 17.4619C86.2549 18.001 85.7393 18.4229 85.0889 18.7275C84.4385 19.0264 83.7178 19.1758 82.9268 19.1758ZM82.6367 11.3711C82.1328 11.3711 81.7227 11.541 81.4062 11.8809C81.0957 12.2207 80.8965 12.707 80.8086 13.3398H84.3418V13.1377C84.3301 12.5752 84.1777 12.1416 83.8848 11.8369C83.5918 11.5264 83.1758 11.3711 82.6367 11.3711Z" fill="#999999"/>
</svg>
