<svg width="27" height="26" viewBox="0 0 27 26" fill="none" xmlns="http://www.w3.org/2000/svg">
<path d="M8.84943 2.99147C9.54261 1.18922 11.2741 0 13.2051 0V0C16.4801 0 18.7364 3.28527 17.5608 6.34199L11.1506 23.0085C10.4574 24.8108 8.72586 26 6.7949 26V26C3.51988 26 1.26356 22.7147 2.43923 19.658L8.84943 2.99147Z" fill="#5F84E1"/>
<path d="M9.17563 6.86443L16.0115 23.0219C16.7111 24.6755 18.3324 25.75 20.1279 25.75C23.2647 25.75 25.4258 22.6034 24.2997 19.6757L18.0018 3.30114C17.2948 1.46294 15.5287 0.25 13.5593 0.25C10.1516 0.25 7.84789 3.72611 9.17563 6.86443Z" fill="#F3F8FD" stroke="#5F84E1" stroke-width="1"/>
</svg>
