<svg width="87" height="21" viewBox="0 0 87 21" fill="none" xmlns="http://www.w3.org/2000/svg">
<path d="M16.6758 11.9014C18.3188 11.9014 20.6963 11.5625 20.6963 9.60644C20.707 9.27734 20.7383 9.51758 19.6768 4.90723C19.4512 3.97217 19.2529 3.54785 17.6108 2.72705C16.3369 2.07568 13.562 1 12.7412 1C11.9766 1 11.7549 1.98486 10.8433 1.98486C9.96436 1.98486 9.31445 1.24951 8.49365 1.24951C7.70557 1.24951 7.19189 1.78662 6.79541 2.89111C5.45264 6.67773 5.51221 6.51758 5.52002 6.71289C5.52002 7.92383 10.2876 11.894 16.6758 11.894V11.9014ZM20.9473 10.4014C21.1743 11.4756 21.1743 11.5903 21.1743 11.7319C21.1743 13.5708 19.1074 14.5913 16.3892 14.5913C10.2495 14.5952 4.87012 10.9951 4.87012 8.61816C4.86961 8.28702 4.93708 7.95929 5.06836 7.65527C2.85938 7.76562 0 8.15967 0 10.6841C0 14.8184 9.79639 19.9126 17.5532 19.9126C23.5 19.9126 25 17.2231 25 15.0991C25 13.4287 23.5552 11.5322 20.9507 10.3999" fill="#999999"/>
<path d="M41.3193 9.87207C40.9736 9.8252 40.6689 9.80176 40.4053 9.80176C39.4443 9.80176 38.8145 10.127 38.5156 10.7773V17H35.9756V7.49023H38.375L38.4453 8.62402C38.9551 7.75098 39.6611 7.31445 40.5635 7.31445C40.8447 7.31445 41.1084 7.35254 41.3545 7.42871L41.3193 9.87207ZM46.751 17.1758C45.3564 17.1758 44.2197 16.748 43.3408 15.8926C42.4678 15.0371 42.0312 13.8975 42.0312 12.4736V12.2275C42.0312 11.2725 42.2158 10.4199 42.585 9.66992C42.9541 8.91406 43.4756 8.33398 44.1494 7.92969C44.8291 7.51953 45.6025 7.31445 46.4697 7.31445C47.7705 7.31445 48.793 7.72461 49.5371 8.54492C50.2871 9.36523 50.6621 10.5283 50.6621 12.0342V13.0713H44.6064C44.6885 13.6924 44.9346 14.1904 45.3447 14.5654C45.7607 14.9404 46.2852 15.1279 46.918 15.1279C47.8965 15.1279 48.6611 14.7734 49.2119 14.0645L50.46 15.4619C50.0791 16.001 49.5635 16.4229 48.9131 16.7275C48.2627 17.0264 47.542 17.1758 46.751 17.1758ZM46.4609 9.37109C45.957 9.37109 45.5469 9.54102 45.2305 9.88086C44.9199 10.2207 44.7207 10.707 44.6328 11.3398H48.166V11.1377C48.1543 10.5752 48.002 10.1416 47.709 9.83691C47.416 9.52637 47 9.37109 46.4609 9.37109ZM51.7168 12.1748C51.7168 10.6924 52.0479 9.51172 52.71 8.63281C53.3779 7.75391 54.2891 7.31445 55.4434 7.31445C56.3691 7.31445 57.1338 7.66016 57.7373 8.35156V3.5H60.2861V17H57.9922L57.8691 15.9893C57.2363 16.7803 56.4219 17.1758 55.4258 17.1758C54.3066 17.1758 53.4072 16.7363 52.7275 15.8574C52.0537 14.9727 51.7168 13.7451 51.7168 12.1748ZM54.2568 12.3594C54.2568 13.25 54.4121 13.9326 54.7227 14.4072C55.0332 14.8818 55.4844 15.1191 56.0762 15.1191C56.8613 15.1191 57.415 14.7881 57.7373 14.126V10.373C57.4209 9.71094 56.873 9.37988 56.0938 9.37988C54.8691 9.37988 54.2568 10.373 54.2568 12.3594ZM63.6963 9.09863C64.042 8.53027 64.4844 8.09082 65.0234 7.78027C65.5625 7.46973 66.1514 7.31445 66.79 7.31445C67.8096 7.31445 68.5684 7.60156 69.0664 8.17578C69.5645 8.75 69.8164 9.61133 69.8223 10.7598V17H68.7764V10.751C68.7705 9.90137 68.5889 9.26855 68.2314 8.85254C67.8799 8.43652 67.3145 8.22852 66.5352 8.22852C65.8848 8.22852 65.3076 8.43359 64.8037 8.84375C64.3057 9.24805 63.9365 9.7959 63.6963 10.4873V17H62.6504V3.5H63.6963V9.09863ZM78.5322 17C78.4268 16.7012 78.3594 16.2588 78.3301 15.6729C77.9609 16.1533 77.4893 16.5254 76.915 16.7891C76.3467 17.0469 75.7432 17.1758 75.1045 17.1758C74.1904 17.1758 73.4492 16.9209 72.8809 16.4111C72.3184 15.9014 72.0371 15.2568 72.0371 14.4775C72.0371 13.5518 72.4209 12.8193 73.1885 12.2803C73.9619 11.7412 75.0371 11.4717 76.4141 11.4717H78.3213V10.3906C78.3213 9.71094 78.1104 9.17773 77.6885 8.79102C77.2725 8.39844 76.6631 8.20215 75.8604 8.20215C75.1279 8.20215 74.5215 8.38965 74.041 8.76465C73.5605 9.13965 73.3203 9.59082 73.3203 10.1182L72.2656 10.1094C72.2656 9.35352 72.6172 8.7002 73.3203 8.14941C74.0234 7.59277 74.8877 7.31445 75.9131 7.31445C76.9736 7.31445 77.8086 7.58105 78.418 8.11426C79.0332 8.6416 79.3496 9.37988 79.3672 10.3291V14.8291C79.3672 15.749 79.4639 16.4375 79.6572 16.8945V17H78.5322ZM75.2275 16.2441C75.9307 16.2441 76.5576 16.0742 77.1084 15.7344C77.665 15.3945 78.0693 14.9404 78.3213 14.3721V12.2803H76.4404C75.3916 12.292 74.5713 12.4854 73.9795 12.8604C73.3877 13.2295 73.0918 13.7393 73.0918 14.3896C73.0918 14.9229 73.2881 15.3652 73.6807 15.7168C74.0791 16.0684 74.5947 16.2441 75.2275 16.2441ZM83.8145 5.05566V7.49023H85.7832V8.35156H83.8145V14.6885C83.8145 15.2158 83.9082 15.6084 84.0957 15.8662C84.2891 16.124 84.6084 16.2529 85.0537 16.2529C85.2295 16.2529 85.5137 16.2236 85.9062 16.165L85.9502 17.0264C85.6748 17.126 85.2998 17.1758 84.8252 17.1758C84.1045 17.1758 83.5801 16.9678 83.252 16.5518C82.9238 16.1299 82.7598 15.5117 82.7598 14.6973V8.35156H81.0107V7.49023H82.7598V5.05566H83.8145Z" fill="#999999"/>
</svg>
