<svg width="70" height="70" viewBox="0 0 70 70" fill="none" xmlns="http://www.w3.org/2000/svg">
<rect x="0.5" y="0.5" width="69" height="69" rx="34.5" stroke="#5F84E1"/>
<rect x="12" y="12" width="46" height="46" rx="23" fill="#D5E7FB"/>
<path d="M43.5312 32.9375H42.3594V29.4219C42.3594 25.3301 39.0293 22 34.9375 22C30.8457 22 27.5156 25.3301 27.5156 29.4219V32.9375H26.3438C25.0498 32.9375 24 33.9873 24 35.2812V44.6562C24 45.9502 25.0498 47 26.3438 47H43.5312C44.8252 47 45.875 45.9502 45.875 44.6562V35.2812C45.875 33.9873 44.8252 32.9375 43.5312 32.9375ZM38.4531 32.9375H31.4219V29.4219C31.4219 27.4834 32.999 25.9062 34.9375 25.9062C36.876 25.9062 38.4531 27.4834 38.4531 29.4219V32.9375Z" fill="#5F84E1"/>
</svg>
