<svg width="70" height="70" viewBox="0 0 70 70" fill="none" xmlns="http://www.w3.org/2000/svg">
<rect x="0.5" y="0.5" width="69" height="69" rx="34.5" stroke="#5F84E1"/>
<rect x="12" y="12" width="46" height="46" rx="23" fill="#D5E7FB"/>
<path d="M35.5 36.0625C39.3818 36.0625 42.5312 32.9131 42.5312 29.0312C42.5312 25.1494 39.3818 22 35.5 22C31.6182 22 28.4688 25.1494 28.4688 29.0312C28.4688 32.9131 31.6182 36.0625 35.5 36.0625ZM41.75 37.625H39.0596C37.9756 38.123 36.7695 38.4062 35.5 38.4062C34.2305 38.4062 33.0293 38.123 31.9404 37.625H29.25C25.7979 37.625 23 40.4229 23 43.875V44.6562C23 45.9502 24.0498 47 25.3438 47H45.6562C46.9502 47 48 45.9502 48 44.6562V43.875C48 40.4229 45.2021 37.625 41.75 37.625Z" fill="#5F84E1"/>
</svg>
