<svg width="70" height="70" viewBox="0 0 70 70" fill="none" xmlns="http://www.w3.org/2000/svg">
<rect x="0.5" y="0.5" width="69" height="69" rx="34.5" stroke="#5F84E1"/>
<rect x="12" y="12" width="46" height="46" rx="23" fill="#D5E7FB"/>
<path fill-rule="evenodd" clip-rule="evenodd" d="M32 25C31.7348 25 31.4804 25.1054 31.2929 25.2929C31.1054 25.4804 31 25.7348 31 26V28C31 28.2652 31.1054 28.5196 31.2929 28.7071C31.4804 28.8946 31.7348 29 32 29C32.2652 29 32.5196 28.8946 32.7071 28.7071C32.8946 28.5196 33 28.2652 33 28V26C33 25.7348 32.8946 25.4804 32.7071 25.2929C32.5196 25.1054 32.2652 25 32 25V25ZM31 32H39V34C39 35.0609 38.5786 36.0783 37.8284 36.8284C37.0783 37.5786 36.0609 38 35 38C33.9391 38 32.9217 37.5786 32.1716 36.8284C31.4214 36.0783 31 35.0609 31 34V32ZM36 39.917C37.3981 39.6803 38.6672 38.9562 39.5824 37.8732C40.4976 36.7901 40.9998 35.418 41 34V30H29V34C29.0002 35.418 29.5024 36.7901 30.4176 37.8732C31.3328 38.9562 32.6019 39.6803 34 39.917V45C34 45.2652 34.1054 45.5196 34.2929 45.7071C34.4804 45.8946 34.7348 46 35 46C35.2652 46 35.5196 45.8946 35.7071 45.7071C35.8946 45.5196 36 45.2652 36 45V39.917ZM37 26C37 25.7348 37.1054 25.4804 37.2929 25.2929C37.4804 25.1054 37.7348 25 38 25C38.2652 25 38.5196 25.1054 38.7071 25.2929C38.8946 25.4804 39 25.7348 39 26V28C39 28.2652 38.8946 28.5196 38.7071 28.7071C38.5196 28.8946 38.2652 29 38 29C37.7348 29 37.4804 28.8946 37.2929 28.7071C37.1054 28.5196 37 28.2652 37 28V26Z" fill="#5F84E1"/>
</svg>
