<svg width="38" height="15" viewBox="0 0 38 15" fill="none" xmlns="http://www.w3.org/2000/svg">
<path d="M9.82812 1.20312V9.63184C9.82812 11.0322 9.38867 12.1396 8.50977 12.9541C7.63672 13.7686 6.44141 14.1758 4.92383 14.1758C3.42969 14.1758 2.24316 13.7803 1.36426 12.9893C0.485352 12.1982 0.0371094 11.1113 0.0195312 9.72852V1.20312H2.65625V9.64941C2.65625 10.4873 2.85547 11.0996 3.25391 11.4863C3.6582 11.8672 4.21484 12.0576 4.92383 12.0576C6.40625 12.0576 7.15918 11.2783 7.18262 9.71973V1.20312H9.82812ZM20.3926 9.33301C20.3926 10.8564 20.0674 12.0459 19.417 12.9014C18.7666 13.751 17.8584 14.1758 16.6924 14.1758C15.6611 14.1758 14.8379 13.7803 14.2227 12.9893L14.1084 14H11.8232V0.5H14.3633V5.34277C14.9492 4.65723 15.7197 4.31445 16.6748 4.31445C17.835 4.31445 18.7432 4.74219 19.3994 5.59766C20.0615 6.44727 20.3926 7.64551 20.3926 9.19238V9.33301ZM17.8525 9.14844C17.8525 8.1875 17.7002 7.4873 17.3955 7.04785C17.0908 6.60254 16.6367 6.37988 16.0332 6.37988C15.2246 6.37988 14.668 6.71094 14.3633 7.37305V11.126C14.6738 11.7939 15.2363 12.1279 16.0508 12.1279C16.8711 12.1279 17.4102 11.7236 17.668 10.915C17.791 10.5283 17.8525 9.93945 17.8525 9.14844ZM26.3428 14.1758C24.9482 14.1758 23.8115 13.748 22.9326 12.8926C22.0596 12.0371 21.623 10.8975 21.623 9.47363V9.22754C21.623 8.27246 21.8076 7.41992 22.1768 6.66992C22.5459 5.91406 23.0674 5.33398 23.7412 4.92969C24.4209 4.51953 25.1943 4.31445 26.0615 4.31445C27.3623 4.31445 28.3848 4.72461 29.1289 5.54492C29.8789 6.36523 30.2539 7.52832 30.2539 9.03418V10.0713H24.1982C24.2803 10.6924 24.5264 11.1904 24.9365 11.5654C25.3525 11.9404 25.877 12.1279 26.5098 12.1279C27.4883 12.1279 28.2529 11.7734 28.8037 11.0645L30.0518 12.4619C29.6709 13.001 29.1553 13.4229 28.5049 13.7275C27.8545 14.0264 27.1338 14.1758 26.3428 14.1758ZM26.0527 6.37109C25.5488 6.37109 25.1387 6.54102 24.8223 6.88086C24.5117 7.2207 24.3125 7.70703 24.2246 8.33984H27.7578V8.1377C27.7461 7.5752 27.5938 7.1416 27.3008 6.83691C27.0078 6.52637 26.5918 6.37109 26.0527 6.37109ZM37.0479 6.87207C36.7021 6.8252 36.3975 6.80176 36.1338 6.80176C35.1729 6.80176 34.543 7.12695 34.2441 7.77734V14H31.7041V4.49023H34.1035L34.1738 5.62402C34.6836 4.75098 35.3896 4.31445 36.292 4.31445C36.5732 4.31445 36.8369 4.35254 37.083 4.42871L37.0479 6.87207Z" fill="#999999"/>
</svg>
