<svg width="106" height="24" viewBox="0 0 106 24" fill="none" xmlns="http://www.w3.org/2000/svg">
<path d="M39.8711 14.8271L42.7715 5.20312H45.707L41.251 18H38.5L34.0615 5.20312H36.9883L39.8711 14.8271ZM57.3086 11.8916C57.3086 13.1514 57.0859 14.2559 56.6406 15.2051C56.1953 16.1543 55.5566 16.8867 54.7246 17.4023C53.8984 17.918 52.9492 18.1758 51.877 18.1758C50.8164 18.1758 49.8701 17.9209 49.0381 17.4111C48.2061 16.9014 47.5615 16.1748 47.1045 15.2314C46.6475 14.2822 46.416 13.1924 46.4102 11.9619V11.3291C46.4102 10.0693 46.6357 8.96191 47.0869 8.00684C47.5439 7.0459 48.1855 6.31055 49.0117 5.80078C49.8438 5.28516 50.793 5.02734 51.8594 5.02734C52.9258 5.02734 53.8721 5.28516 54.6982 5.80078C55.5303 6.31055 56.1719 7.0459 56.623 8.00684C57.0801 8.96191 57.3086 10.0664 57.3086 11.3203V11.8916ZM54.6367 11.3115C54.6367 9.96973 54.3965 8.9502 53.916 8.25293C53.4355 7.55566 52.75 7.20703 51.8594 7.20703C50.9746 7.20703 50.292 7.55273 49.8115 8.24414C49.3311 8.92969 49.0879 9.9375 49.082 11.2676V11.8916C49.082 13.1982 49.3223 14.2119 49.8027 14.9326C50.2832 15.6533 50.9746 16.0137 51.877 16.0137C52.7617 16.0137 53.4414 15.668 53.916 14.9766C54.3906 14.2793 54.6309 13.2656 54.6367 11.9355V11.3115ZM69.6309 18H66.9941L61.8613 9.58008V18H59.2246V5.20312H61.8613L67.0029 13.6406V5.20312H69.6309V18ZM79.3164 15.3633H74.6934L73.8145 18H71.0107L75.7744 5.20312H78.2178L83.0078 18H80.2041L79.3164 15.3633ZM75.4053 13.2275H78.6045L76.9961 8.4375L75.4053 13.2275ZM94.1348 16.3828C93.6602 16.9512 92.9893 17.3936 92.1221 17.71C91.2549 18.0205 90.2939 18.1758 89.2393 18.1758C88.1318 18.1758 87.1592 17.9355 86.3213 17.4551C85.4893 16.9688 84.8447 16.2656 84.3877 15.3457C83.9365 14.4258 83.7051 13.3447 83.6934 12.1025V11.2324C83.6934 9.95508 83.9072 8.85059 84.335 7.91895C84.7686 6.98145 85.3896 6.2666 86.1982 5.77441C87.0127 5.27637 87.9648 5.02734 89.0547 5.02734C90.5723 5.02734 91.7588 5.39062 92.6143 6.11719C93.4697 6.83789 93.9766 7.88965 94.1348 9.27246H91.5684C91.4512 8.54004 91.1904 8.00391 90.7861 7.66406C90.3877 7.32422 89.8369 7.1543 89.1338 7.1543C88.2373 7.1543 87.5547 7.49121 87.0859 8.16504C86.6172 8.83887 86.3799 9.84082 86.374 11.1709V11.9883C86.374 13.3301 86.6289 14.3438 87.1387 15.0293C87.6484 15.7148 88.3955 16.0576 89.3799 16.0576C90.3701 16.0576 91.0762 15.8467 91.498 15.4248V13.2188H89.0986V11.2764H94.1348V16.3828ZM103.979 12.4541H98.916V15.8818H104.857V18H96.2793V5.20312H104.84V7.33887H98.916V10.3887H103.979V12.4541Z" fill="#999999"/>
<path d="M9.279 11.617L4.739 1.547H0L6.797 16.843C6.80367 16.8577 6.81443 16.8702 6.82799 16.8789C6.84156 16.8877 6.85736 16.8923 6.8735 16.8923C6.88964 16.8923 6.90544 16.8877 6.91901 16.8789C6.93257 16.8702 6.94333 16.8577 6.95 16.843L9.279 11.617ZM19.177 1.547C19.177 1.547 13.029 15.415 12.26 17.112C10.422 21.168 9.06 22.182 7.672 22.401C7.6651 22.4015 7.6587 22.4048 7.6542 22.41C7.6497 22.4153 7.64747 22.4221 7.648 22.429C7.64853 22.4359 7.65178 22.4423 7.65703 22.4468C7.66228 22.4513 7.6691 22.4535 7.676 22.453H12.016C13.927 22.453 15.235 21.168 17.076 17.112C17.72 15.694 24 1.547 24 1.547H19.177Z" fill="#999999"/>
</svg>
