<svg width="23" height="22" viewBox="0 0 23 22" fill="none" xmlns="http://www.w3.org/2000/svg">
<path d="M19.8845 0.0270135H2.69696C2.07536 0.0270135 1.47922 0.273944 1.03968 0.713482C0.600141 1.15302 0.35321 1.74916 0.35321 2.37076L0.35321 19.5583C0.35321 20.1799 0.600141 20.776 1.03968 21.2155C1.47922 21.6551 2.07536 21.902 2.69696 21.902H9.39862V14.465H6.32245V10.9645H9.39862V8.29654C9.39862 5.26188 11.2053 3.58561 13.9724 3.58561C15.2975 3.58561 16.6833 3.82194 16.6833 3.82194V6.80045H15.1564C13.652 6.80045 13.1828 7.73404 13.1828 8.69156V10.9645H16.5412L16.0041 14.465H13.1828V21.902H19.8845C20.5061 21.902 21.1022 21.6551 21.5417 21.2155C21.9813 20.776 22.2282 20.1799 22.2282 19.5583V2.37076C22.2282 1.74916 21.9813 1.15302 21.5417 0.713482C21.1022 0.273944 20.5061 0.0270135 19.8845 0.0270135V0.0270135Z" fill="#1977F3"/>
</svg>
