<svg width="29" height="31" viewBox="0 0 29 31" fill="none" xmlns="http://www.w3.org/2000/svg">
<path d="M21.806 10.75V7.22302C22.2721 7.00518 22.6667 6.65946 22.9439 6.22607C23.2212 5.79269 23.3696 5.28948 23.372 4.77502V4.69402C23.372 3.19402 22.156 1.97802 20.656 1.97802H20.575C19.8547 1.97802 19.1638 2.26416 18.6545 2.77351C18.1451 3.28286 17.859 3.97369 17.859 4.69402V4.77502C17.8614 5.28948 18.0098 5.79269 18.287 6.22607C18.5643 6.65946 18.9589 7.00518 19.425 7.22302V10.75C18.0854 10.9551 16.8238 11.5105 15.768 12.36L6.09498 4.82602C6.16398 4.57702 6.19998 4.32102 6.20398 4.06402C6.20517 3.45872 6.02681 2.86667 5.69147 2.36276C5.35613 1.85884 4.87888 1.4657 4.32008 1.23306C3.76128 1.00041 3.14603 0.938726 2.55216 1.05579C1.95829 1.17286 1.41248 1.46343 0.983777 1.89074C0.555069 2.31805 0.262721 2.8629 0.143712 3.45638C0.0247029 4.04986 0.0843847 4.66531 0.315198 5.22487C0.546011 5.78443 0.937587 6.26296 1.4404 6.59995C1.94322 6.93693 2.53469 7.11722 3.13998 7.11802C3.66953 7.11552 4.18916 6.97415 4.64699 6.70802L14.172 14.12C13.3163 15.4127 12.8699 16.9331 12.891 18.4832C12.912 20.0333 13.3995 21.5411 14.29 22.81L11.393 25.708C11.1588 25.6331 10.9148 25.5934 10.669 25.59C10.1721 25.5904 9.68654 25.7381 9.27359 26.0144C8.86063 26.2907 8.53884 26.6831 8.34889 27.1423C8.15893 27.6014 8.10934 28.1065 8.20636 28.5938C8.30339 29.0811 8.5427 29.5286 8.89402 29.88C9.24535 30.2313 9.69294 30.4706 10.1802 30.5676C10.6675 30.6647 11.1726 30.6151 11.6317 30.4251C12.0909 30.2352 12.4833 29.9134 12.7596 29.5004C13.0359 29.0875 13.1836 28.6019 13.184 28.105C13.1808 27.8592 13.141 27.6152 13.066 27.381L15.932 24.514C16.8666 25.2335 17.9534 25.7296 19.1093 25.9641C20.2652 26.1987 21.4595 26.1656 22.6006 25.8673C23.7417 25.569 24.7995 25.0135 25.6927 24.2433C26.586 23.4731 27.2911 22.5087 27.7541 21.4239C28.217 20.3391 28.4255 19.1627 28.3636 17.9848C28.3017 16.807 27.971 15.659 27.3969 14.6287C26.8227 13.5984 26.0204 12.7132 25.0513 12.0409C24.0822 11.3686 22.9721 10.927 21.806 10.75V10.75ZM20.618 22.35C20.0883 22.3646 19.5611 22.2728 19.0675 22.0802C18.5739 21.8876 18.1239 21.598 17.7441 21.2285C17.3643 20.859 17.0624 20.4171 16.8563 19.929C16.6501 19.4409 16.5439 18.9164 16.5439 18.3865C16.5439 17.8566 16.6501 17.3321 16.8563 16.844C17.0624 16.3559 17.3643 15.914 17.7441 15.5445C18.1239 15.1751 18.5739 14.8854 19.0675 14.6928C19.5611 14.5002 20.0883 14.4084 20.618 14.423C21.6446 14.459 22.6171 14.8919 23.3308 15.6307C24.0445 16.3695 24.4437 17.3564 24.4442 18.3836C24.4447 19.4108 24.0466 20.3981 23.3336 21.1376C22.6207 21.8771 21.6485 22.311 20.622 22.348" fill="#FF7A59"/>
</svg>
