<svg width="23" height="23" viewBox="0 0 23 23" fill="none" xmlns="http://www.w3.org/2000/svg">
<path d="M19.6617 0.665375H3.25543C1.74664 0.665375 0.521057 1.89096 0.521057 3.39975V19.806C0.521057 21.3148 1.74664 22.5404 3.25543 22.5404H19.6617C21.1705 22.5404 22.3961 21.3148 22.3961 19.806V3.39975C22.3961 1.89096 21.1705 0.665375 19.6617 0.665375ZM14.3736 4.67416C14.3736 3.70737 15.8336 3.70737 15.8336 4.67416V14.4154C15.8336 15.3822 14.3736 15.3822 14.3736 14.4154V4.67416ZM10.731 4.30795C10.731 3.34116 12.191 3.34116 12.191 4.30795V14.8792C12.191 15.846 10.731 15.846 10.731 14.8792V4.30795ZM7.08356 4.67416C7.08356 3.70737 8.54352 3.70737 8.54352 4.67416V14.4154C8.54352 15.3822 7.08356 15.3822 7.08356 14.4154V4.67416ZM3.4361 6.13412C3.4361 5.16733 4.89606 5.16733 4.89606 6.13412V12.6917C4.89606 13.6585 3.4361 13.6585 3.4361 12.6917V6.13412V6.13412ZM19.2271 17.2572C15.6724 20.3333 7.42535 20.4505 3.69489 17.2572C2.96246 16.6322 3.90973 15.5238 4.64215 16.1488C7.85992 18.849 15.1939 18.7806 18.2798 16.1488C19.0074 15.5189 19.9547 16.6273 19.2271 17.2572V17.2572ZM19.481 12.6917C19.481 13.6585 18.0211 13.6585 18.0211 12.6917V6.13412C18.0211 5.16733 19.481 5.16733 19.481 6.13412V12.6917Z" fill="#0075FF"/>
</svg>
