<svg width="26" height="26" viewBox="0 0 26 26" fill="none" xmlns="http://www.w3.org/2000/svg">
<path d="M18.4225 12.3743C18.5732 12.3548 18.7259 12.3548 18.8766 12.3743C18.9577 12.1873 18.9718 11.8651 18.8986 11.5145C18.7897 10.9935 18.6422 10.6776 18.338 10.7269C18.0338 10.7762 18.0221 11.1536 18.131 11.6751C18.1925 11.9681 18.3014 12.2191 18.424 12.3743H18.4225ZM15.8073 12.7884C16.0255 12.8861 16.1588 12.9476 16.2116 12.8924C16.3039 12.7977 16.0416 12.4339 15.6198 12.2532C15.3762 12.1523 15.1107 12.1158 14.8489 12.1473C14.5871 12.1788 14.3379 12.2771 14.1251 12.4329C13.9787 12.5394 13.8414 12.6878 13.861 12.7777C13.9025 12.9603 14.3493 12.6453 14.9645 12.6077C15.3063 12.5863 15.5895 12.6932 15.8073 12.7889V12.7884ZM15.3678 13.0389C14.9249 13.1082 14.6354 13.3577 14.7101 13.5321C14.754 13.5487 14.7672 13.5716 14.9645 13.4925C15.2559 13.3825 15.5708 13.3497 15.8786 13.3973C16.0211 13.4139 16.089 13.4227 16.1198 13.3734C16.1911 13.265 15.841 12.9827 15.3683 13.0389H15.3678ZM18.0128 13.8738C18.1779 13.5384 17.4806 13.1937 17.3146 13.5321C17.1486 13.8704 17.8478 14.2098 18.0138 13.8724L18.0128 13.8738ZM18.7775 12.8743C18.4035 12.868 18.3893 13.6458 18.7648 13.6522C19.1403 13.6585 19.1544 12.8802 18.7785 12.8729L18.7775 12.8743ZM8.09438 16.7269C8.02993 16.742 7.80141 16.7977 7.6808 16.6121C7.4269 16.2215 8.22329 15.617 7.82729 14.8655C7.38295 14.0125 6.46889 14.2044 6.11586 14.595C5.69057 15.0638 5.69008 15.7445 5.87172 15.7708C6.08022 15.7987 6.07094 15.4549 6.23207 15.203C6.2771 15.1335 6.33545 15.0736 6.40374 15.0268C6.47204 14.98 6.54894 14.9473 6.62998 14.9304C6.71103 14.9135 6.79462 14.9128 6.87592 14.9284C6.95723 14.944 7.03463 14.9756 7.10366 15.0213C7.66957 15.3919 7.17055 15.8885 7.21498 16.4188C7.28286 17.2332 8.1144 17.2181 8.2687 16.8582C8.27866 16.8405 8.28306 16.8201 8.28132 16.7998C8.27957 16.7795 8.27177 16.7603 8.25893 16.7445C8.26039 16.7879 8.29213 16.681 8.09536 16.7254L8.09438 16.7269ZM22.7291 15.8934C22.5656 15.3206 22.6037 15.4432 22.3981 14.8914C22.5177 14.7122 23.1447 13.7196 22.2482 12.7796C21.7404 12.2464 20.5929 11.972 20.2414 11.8743C20.1681 11.3182 20.4684 9.00813 19.1906 7.8216C20.2057 6.76936 20.839 5.61018 20.8375 4.61604C20.8346 2.70393 18.4865 2.1258 15.5924 3.32356L14.9796 3.58381C14.9767 3.58137 13.8707 2.49641 13.8541 2.48176C10.5558 -0.395194 0.239886 11.0701 3.53823 13.8553L4.25893 14.4661C4.06443 14.988 3.99584 15.5485 4.05873 16.1019C4.2228 17.7327 5.81655 19.0521 7.3561 19.0501C10.1749 25.5472 20.4372 25.5579 23.0929 19.1966C23.1779 18.9783 23.5377 17.9949 23.5377 17.1273C23.5377 16.2596 23.0451 15.8934 22.7306 15.8934H22.7291ZM7.29946 18.2449C6.1852 18.2152 4.98207 17.2122 4.86245 16.0228C4.56118 13.0291 8.48842 12.3475 8.96401 15.4207C9.18569 16.868 8.73598 18.2767 7.29799 18.2435L7.29946 18.2449ZM6.39565 12.6688C5.65541 12.8128 5.00307 13.2322 4.60366 13.8138C4.36537 13.6151 3.92006 13.2279 3.84243 13.0814C3.20717 11.868 4.53774 9.51691 5.4684 8.1883C7.76869 4.90559 11.3707 2.42121 13.0392 2.8719C13.3102 2.94856 14.2081 3.98957 14.2081 3.98957C14.2081 3.98957 12.5407 4.91438 10.9953 6.20393C8.91225 7.80793 7.33852 10.139 6.39565 12.6688ZM18.0597 17.6077C18.0597 17.6077 16.3146 17.8665 14.6657 17.2625C14.9689 16.2781 15.984 17.5604 19.3727 16.5882C20.1193 16.3743 21.0997 15.9534 21.8629 15.3504C22.0272 15.7298 22.1439 16.128 22.2106 16.536C22.3893 16.5037 22.9064 16.5106 22.7692 17.4197C22.6085 18.39 22.1964 19.1776 21.5031 19.9022C21.07 20.3714 20.5544 20.7572 19.9821 21.0404C19.6633 21.2074 19.331 21.3475 18.9889 21.4593C16.3761 22.3128 13.7008 21.3743 12.8366 19.3597C12.7665 19.2059 12.7085 19.0469 12.6632 18.8841C12.2956 17.556 12.6076 15.9627 13.5831 14.9598C13.6432 14.8958 13.7042 14.8206 13.7042 14.7259C13.6957 14.6443 13.6631 14.5672 13.6105 14.5042C13.2687 14.0096 12.0875 13.1663 12.3248 11.534C12.4957 10.3621 13.5206 9.53645 14.4767 9.58527L14.7208 9.59943C15.1349 9.62385 15.4967 9.67707 15.838 9.69123C16.4088 9.71565 16.922 9.63313 17.5294 9.12678C17.7345 8.95588 17.8991 8.80744 18.1769 8.76008C18.2892 8.73227 18.406 8.72762 18.5202 8.74642C18.6344 8.76523 18.7435 8.80709 18.841 8.86945C19.3292 9.19367 19.3976 9.97932 19.423 10.5535C19.4372 10.8817 19.4767 11.6766 19.4904 11.9027C19.5211 12.4237 19.6579 12.4969 19.9352 12.5863C20.091 12.6375 20.2355 12.6756 20.4484 12.7357C21.0934 12.9168 21.4738 13.1009 21.7179 13.3367C21.8424 13.4587 21.9237 13.618 21.9494 13.7904C22.0255 14.3455 21.5187 15.0306 20.1764 15.6536C17.8956 16.7122 15.6022 16.3592 15.2702 16.3216C14.2863 16.1893 13.7257 17.4603 14.3156 18.3309C15.421 19.9622 20.2921 19.3074 21.7067 17.2884C21.7404 17.2396 21.7125 17.2108 21.671 17.2396C19.6315 18.6351 16.9318 19.1053 15.3986 18.5091C15.1657 18.4188 14.6793 18.1946 14.6203 17.6951C16.7492 18.3538 18.0871 17.7313 18.0871 17.7313C18.0871 17.7313 18.1862 17.595 18.0597 17.6077V17.6077ZM10.6442 8.17414C11.4616 7.22932 12.4684 6.40754 13.3703 5.94611C13.3771 5.94209 13.385 5.94044 13.3929 5.94143C13.4007 5.94242 13.408 5.94599 13.4136 5.95159C13.4192 5.95718 13.4228 5.96448 13.4238 5.97233C13.4248 5.98018 13.4231 5.98813 13.4191 5.99494C13.3478 6.12483 13.2096 6.40217 13.1657 6.61262C13.1639 6.61985 13.1644 6.62745 13.1671 6.63439C13.1698 6.64134 13.1745 6.6473 13.1807 6.65149C13.1868 6.65568 13.1941 6.6579 13.2015 6.65784C13.209 6.65779 13.2162 6.65547 13.2223 6.65119C13.7833 6.26887 14.7594 5.8592 15.6149 5.80647C15.6229 5.80592 15.631 5.80798 15.6378 5.81235C15.6446 5.81671 15.6498 5.82316 15.6526 5.83072C15.6555 5.83828 15.6558 5.84656 15.6536 5.85433C15.6514 5.8621 15.6467 5.86894 15.6403 5.87385C15.4988 5.98284 15.3723 6.1099 15.2638 6.25178C15.2599 6.25719 15.2575 6.26356 15.257 6.27022C15.2564 6.27687 15.2577 6.28356 15.2607 6.28954C15.2636 6.29552 15.2682 6.30058 15.2738 6.30417C15.2794 6.30775 15.2859 6.30973 15.2926 6.30988C15.8937 6.31428 16.7409 6.52473 17.2946 6.8343C17.3317 6.85529 17.3053 6.92756 17.2633 6.91828C13.8673 6.13996 11.2536 7.82307 10.6959 8.22834C10.6885 8.23313 10.6796 8.23511 10.6709 8.23392C10.6621 8.23274 10.654 8.22846 10.6482 8.22187C10.6423 8.21527 10.6389 8.20679 10.6387 8.19795C10.6385 8.18911 10.6415 8.1805 10.6471 8.17365L10.6442 8.17414Z" fill="black"/>
</svg>
