<svg width="16" height="15" viewBox="0 0 16 15" fill="none" xmlns="http://www.w3.org/2000/svg">
<path fill-rule="evenodd" clip-rule="evenodd" d="M8.40555 0.776825C4.22166 0.776825 0.934326 4.06416 0.934326 8.24805C0.934326 10.4396 1.83087 12.4319 3.2255 13.8266C3.72358 14.3246 4.62012 14.3246 5.21782 13.9262C6.01475 13.2289 7.21015 12.8304 8.40555 12.8304C9.70056 12.8304 10.6967 13.2289 11.5933 13.9262C12.191 14.4243 12.9879 14.3246 13.5856 13.7269C14.9802 12.3323 15.8768 10.4396 15.8768 8.24805C15.7772 4.16378 12.4898 0.776825 8.40555 0.776825V0.776825ZM8.30592 12.1331C6.01475 12.1331 4.52051 10.4396 4.52051 8.34766C4.52051 6.25572 6.01475 4.56224 8.30592 4.56224C10.5971 4.56224 12.0913 6.25572 12.0913 8.34766C12.0913 10.4396 10.5971 12.1331 8.30592 12.1331Z" fill="#81B5A1"/>
</svg>
