<svg width="22" height="22" viewBox="0 0 22 22" fill="none" xmlns="http://www.w3.org/2000/svg">
<path d="M19.1574 0H2.74143C1.22776 0 0.00217014 1.22559 0.00217014 2.73438C-0.00271267 2.73438 0.00217014 2.53906 0.00217014 19.1406C0.00217014 20.6494 1.22776 21.875 2.73655 21.875H19.1526C20.6565 21.8652 21.8723 20.6445 21.8723 19.1406V2.73438C21.8772 1.23047 20.6613 0.00976563 19.1574 0V0ZM9.62131 16.5674C9.61155 17.2852 9.03049 17.8662 8.30783 17.8662H4.26975C3.54709 17.8711 2.95627 17.29 2.95139 16.5674V4.15527C2.95139 3.43262 3.53733 2.8418 4.26487 2.8418H8.31272C9.03537 2.8418 9.62619 3.42773 9.62619 4.15527V16.5674H9.62131ZM19.05 11.0986C19.05 11.8213 18.4641 12.4121 17.7365 12.4121H13.7815C13.0588 12.4121 12.468 11.8262 12.468 11.0986V4.16016C12.468 3.4375 13.0539 2.84668 13.7766 2.84668H17.7365C18.4592 2.84668 19.05 3.43262 19.05 4.16016V11.0986Z" fill="#116DD9"/>
</svg>
