<svg width="203" height="154" viewBox="0 0 203 154" fill="none" xmlns="http://www.w3.org/2000/svg">
<path d="M93.82 40.5V153.36H0.339966L93.82 40.5ZM93.82 0C93.82 12.3962 88.8956 24.2847 80.1301 33.0502C71.3647 41.8156 59.4762 46.74 47.08 46.74C34.6838 46.74 22.7953 41.8156 14.0298 33.0502C5.26435 24.2847 0.339966 12.3962 0.339966 0L93.82 0ZM109.22 153.37C109.22 140.974 114.144 129.085 122.91 120.32C131.675 111.554 143.564 106.63 155.96 106.63C168.356 106.63 180.245 111.554 189.01 120.32C197.776 129.085 202.7 140.974 202.7 153.37H109.22ZM109.22 112.87V0H202.72L109.22 112.86V112.87Z" fill="#03363D"/>
</svg>
